<?xml version="1.0" standalone="no"?>
<!DOCTYPE svg PUBLIC "-//W3C//DTD SVG 20010904//EN"
 "http://www.w3.org/TR/2001/REC-SVG-20010904/DTD/svg10.dtd">
<svg version="1.0" xmlns="http://www.w3.org/2000/svg"
 width="570.000000pt" height="570.000000pt" viewBox="0 0 570.000000 570.000000"
 preserveAspectRatio="xMidYMid meet">
<metadata>
Created by potrace 1.11, written by Peter Selinger 2001-2013
</metadata>
<g transform="translate(0.000000,570.000000) scale(0.100000,-0.100000)"
fill="#000000" stroke="none">
<path d="M2639 5696 c-2 -2 -35 -6 -74 -10 -38 -3 -79 -7 -90 -10 -11 -2 -45
-7 -75 -11 -73 -9 -275 -58 -375 -90 -440 -141 -872 -408 -1199 -740 -265
-269 -458 -557 -616 -920 -21 -48 -83 -229 -95 -275 -2 -8 -13 -51 -24 -95
-22 -88 -56 -287 -68 -405 -16 -147 -8 -521 12 -660 33 -213 58 -325 112 -500
154 -500 464 -976 838 -1288 50 -41 102 -85 117 -98 15 -13 30 -24 33 -24 3 0
29 -17 58 -38 243 -179 674 -370 987 -437 8 -2 35 -8 60 -14 25 -5 61 -13 80
-16 19 -3 42 -8 50 -10 16 -4 48 -9 230 -29 114 -13 522 -14 640 -1 142 15
335 50 495 89 505 123 683 345 500 624 -21 32 -165 183 -324 341 -803 795
-782 776 -890 832 -57 30 -74 34 -140 34 -54 0 -87 -5 -116 -19 -22 -11 -96
-76 -166 -147 -135 -136 -170 -163 -264 -199 -52 -21 -78 -24 -185 -24 -111 0
-132 3 -192 26 -174 69 -291 193 -347 368 -71 223 -27 441 132 652 63 85 1223
1255 1347 1359 233 197 448 250 674 165 241 -91 382 -302 371 -556 -8 -183
-53 -279 -205 -440 -49 -51 -93 -110 -112 -147 -28 -57 -30 -70 -26 -128 7
-78 52 -180 123 -273 53 -70 959 -980 1040 -1045 223 -178 409 -92 547 253 60
150 137 414 153 530 5 32 15 97 21 130 25 145 25 583 0 760 -2 14 -7 48 -10
75 -4 28 -9 57 -11 65 -2 8 -7 30 -10 47 -20 119 -81 335 -135 478 -155 414
-399 776 -722 1070 -261 238 -595 440 -939 569 -220 81 -426 131 -719 171 -48
7 -485 16 -491 11z"/>
</g>
</svg>
